<?xml version="1.0" encoding="UTF-8"?>
<svg xmlns="http://www.w3.org/2000/svg" id="Layer_1" viewBox="0 0 270.598 44.4">
  <defs>
    <style>.cls-1{fill:#d7ff58;}</style>
  </defs>
  <path class="cls-1" d="M16.94,0L0,6.647l6.551,14.562c-.252-1.244-.382-2.532-.382-3.85C6.169,9.742,10.561,3.156,16.94,0"></path>
  <path class="cls-1" d="M25.462,36.705c-.012,0-.024,0-.036,0-3.599,0-6.962-.991-9.845-2.708l9.881,10.402,9.88-10.402c-2.883,1.717-6.245,2.708-9.844,2.708-.012,0-.024,0-.036,0"></path>
  <path class="cls-1" d="M33.984,0c6.38,3.156,10.771,9.742,10.771,17.36,0,1.317-.13,2.606-.382,3.85l6.551-14.562h-.004L33.984,0Z"></path>
  <path class="cls-1" d="M20.554,17.792c-1.512.408-2.728.359-3.42-.143-1.928-1.399-.163-4.368.041-4.702-.85.93-1.724,1.9-2.411,2.965-1.155,1.811-1.444,3.524-.777,4.592.98,1.562,3.123,1.648,6.359.257l18.271-7.83v-.008l-18.067,4.869h.004Z"></path>
  <path class="cls-1" d="M137.486,14.491c-6.547,0-12.435,2.308-15.066,8.074-2.562,5.619,1.089,7.895,8.019,7.895,7.636,0,11.752-2.365,13.15-4.849h-8.494c-.667.946-1.696,1.717-3.375,1.717-1.976,0-2.452-1.154-1.305-3.666v-.004h14.273l.366-.799c2.992-6.565-1.907-8.368-7.568-8.368M137.486,20.824h-5.783c.891-1.949,2.489-3.193,4.348-3.193,1.976,0,2.313,1.272,1.435,3.193"></path>
  <polygon class="cls-1" points="106.049 8.549 96.315 29.901 104.984 29.901 114.719 8.549 106.049 8.549"></polygon>
  <polygon class="cls-1" points="104.793 8.549 96.119 8.549 94.151 12.867 102.82 12.867 104.793 8.549"></polygon>
  <polygon class="cls-1" points="93.156 15.057 86.385 29.905 95.059 29.905 101.825 15.057 93.156 15.057"></polygon>
  <path class="cls-1" d="M84.929,14.494c-3.009,0-5.823,1.064-8.197,3.164h-.061l1.07-2.602h-8.552c-.715,1.892-1.577,3.845-2.48,5.827l-4.111,9.021h8.669l3.371-7.393c1.037-2.275,2.431-3.519,4.436-3.519,1.505,0,2.009.766,1.012,2.956l-3.627,7.956h8.67l4.046-8.874c2.574-5.648-1.59-6.537-4.246-6.537"></path>
  <polygon class="cls-1" points="127.003 15.057 117.004 15.057 108.631 22.039 111.063 29.905 122.006 29.905 118.061 21.476 127.003 15.057"></polygon>
  <path class="cls-1" d="M159.177,29.901l4.88-10.705h4.217l1.887-4.139h-4.217l.325-.71c.687-1.509,2.013-2.218,3.725-2.218.736,0,1.224.032,1.688.179l1.765-3.874c-1.516-.298-3.334-.444-4.928-.444-6.519,0-9.1,2.365-10.922,6.358l-.325.71h-2.476l-1.887,4.139h2.48l-4.879,10.705h8.669Z"></path>
  <polygon class="cls-1" points="261.93 8.549 252.195 29.901 260.863 29.901 270.598 8.549 261.93 8.549"></polygon>
  <path class="cls-1" d="M226.431,14.494c-2.301,0-5.03.681-7.42,2.365l3.789-8.311h-8.67v.008l-9.735,21.352h8.198l1.061-2.071c1.074,1.978,2.692,2.63,5.112,2.63,5.425,0,9.849-2.781,12.195-7.928,2.362-5.175.691-8.046-4.53-8.046M222.023,22.483c-.89,1.949-2.306,4.021-4.726,4.021-2.39,0-1.919-2.067-1.028-4.021,1.094-2.394,2.928-4.021,4.725-4.021,2.066,0,2.106,1.656,1.029,4.021"></path>
  <path class="cls-1" d="M246.676,14.49h-.004c-7.136,0-12.659,1.953-15.408,7.985-2.749,6.031.992,7.985,8.129,7.985s12.658-1.953,15.408-7.985c2.753-6.031-.988-7.985-8.125-7.985M245.838,22.475c-1.041,2.279-2.623,4.2-4.717,4.2s-1.924-1.925-.887-4.2c1.041-2.279,2.623-4.2,4.717-4.2s1.928,1.921.887,4.2"></path>
  <path class="cls-1" d="M203.065,26.149c-1.976,0-2.529-.799-1.691-2.634l1.968-4.319h4.363l1.886-4.139h-4.363l2.412-5.287-9.89,2.69-1.187,2.602h-2.359l-1.886,4.139h2.448l-2.358,5.175c-2.119,4.645-1.127,6.092,4.359,6.092,2.09,0,4.981-.326,6.152-.563l1.805-3.964c-.659.147-1.248.208-1.659.208"></path>
  <polygon class="cls-1" points="182.915 9.764 182.913 9.77 182.919 9.768 182.915 9.764"></polygon>
  <path class="cls-1" d="M193.037,15.012h-8.618s-2.967,10.949-7.346,10.949c-3.037,0,1.13-6.452,2.543-10.949h-8.688l-4.901,10.949s-2.304,4.945,4.619,4.945,8.703-3.179,8.703-3.179l-1.286,2.741h8.9l6.075-15.456Z"></path>
  <polygon class="cls-1" points="179.899 8.549 189.505 8.549 185.762 13.176 179.348 13.176 179.899 8.549"></polygon>
</svg>
